<?xml version="1.0" encoding="UTF-8"?>
<svg width="75px" height="75px" viewBox="0 0 75 75" xmlns="http://www.w3.org/2000/svg" xmlns:xlink="http://www.w3.org/1999/xlink" version="1.1">
 <!-- Generated by Pixelmator Pro 1.8 -->
 <path id="Путь" d="M50.056 37.399 C46.688 31.783 40.951 28.43 34.71 28.43 28.47 28.43 22.733 31.783 19.365 37.399 L11.249 50.931 C9.902 53.176 9.281 55.77 9.451 58.43 9.622 61.091 10.57 63.569 12.191 65.598 13.813 67.625 15.957 69.011 18.391 69.605 20.824 70.199 23.319 69.946 25.604 68.872 L25.753 68.801 C31.505 66.152 38.079 66.175 43.816 68.872 45.295 69.567 46.863 69.919 48.445 69.919 49.305 69.919 50.17 69.815 51.027 69.606 53.461 69.012 55.605 67.626 57.228 65.599 58.85 63.571 59.798 61.092 59.969 58.431 60.14 55.77 59.519 53.176 58.172 50.93 Z M53.893 62.551 C51.829 65.13 48.489 65.945 45.582 64.58 42.127 62.955 38.418 62.144 34.708 62.144 31.002 62.144 27.294 62.955 23.841 64.577 L23.743 64.623 C20.858 65.927 17.568 65.101 15.526 62.551 13.464 59.971 13.229 56.318 14.943 53.461 L23.06 39.929 C25.617 35.665 29.972 33.12 34.71 33.12 39.449 33.12 43.804 35.665 46.362 39.929 L54.478 53.461 C56.192 56.319 55.956 59.972 53.893 62.551 Z" fill="#000000" fill-opacity="1" stroke="none"/>
 <path id="Путь-1" d="M13.435 37.381 C15.849 36.39 17.684 34.31 18.6 31.525 19.472 28.875 19.4 25.883 18.398 23.1 17.395 20.319 15.571 18.048 13.262 16.706 10.836 15.297 8.171 15.067 5.76 16.06 0.91 18.053 -1.315 24.458 0.8 30.341 2.489 35.024 6.429 37.98 10.412 37.98 11.429 37.98 12.449 37.787 13.435 37.381 Z M4.894 28.657 C3.648 25.19 4.743 21.502 7.336 20.436 7.805 20.244 8.3 20.148 8.805 20.148 9.585 20.148 10.391 20.375 11.167 20.826 12.561 21.636 13.675 23.043 14.304 24.785 14.931 26.529 14.987 28.37 14.461 29.97 13.978 31.436 13.055 32.513 11.861 33.004 L11.859 33.005 C9.269 34.072 6.144 32.12 4.894 28.657 Z" fill="#000000" fill-opacity="1" stroke="none"/>
 <path id="Путь-2" d="M29.183 26.779 C35.246 26.779 40.178 20.773 40.178 13.391 40.178 6.007 35.246 0 29.183 0 23.121 0 18.189 6.007 18.189 13.391 18.189 20.773 23.121 26.779 29.183 26.779 Z M29.183 4.689 C32.826 4.689 35.791 8.593 35.791 13.391 35.791 18.187 32.826 22.09 29.183 22.09 25.54 22.09 22.577 18.187 22.577 13.391 22.577 8.593 25.54 4.689 29.183 4.689 Z" fill="#000000" fill-opacity="1" stroke="none"/>
 <path id="Путь-3" d="M48.172 30.068 L48.173 30.068 C49.105 30.399 50.057 30.557 51.004 30.557 55.425 30.557 59.734 27.118 61.378 21.832 62.325 18.79 62.263 15.573 61.203 12.774 60.094 9.845 58.039 7.718 55.415 6.786 52.792 5.855 49.953 6.243 47.423 7.88 45.007 9.444 43.156 11.981 42.21 15.023 40.214 21.442 42.889 28.191 48.172 30.068 Z M46.374 16.502 C46.992 14.515 48.171 12.878 49.697 11.891 51.108 10.977 52.648 10.745 54.031 11.236 55.414 11.728 56.517 12.899 57.136 14.533 57.805 16.299 57.833 18.366 57.215 20.353 55.982 24.318 52.546 26.68 49.556 25.618 46.569 24.556 45.141 20.467 46.374 16.502 Z" fill="#000000" fill-opacity="1" stroke="none"/>
 <path id="Путь-4" d="M71.327 28.506 L71.325 28.504 C67.144 25.203 60.891 26.634 57.385 31.695 53.883 36.758 54.431 43.566 58.605 46.869 60.128 48.074 61.927 48.65 63.768 48.65 66.977 48.65 70.315 46.9 72.547 43.681 76.049 38.618 75.502 31.81 71.327 28.506 Z M69.02 40.891 C66.95 43.878 63.45 44.868 61.216 43.1 58.984 41.334 58.848 37.468 60.913 34.484 62.285 32.502 64.29 31.4 66.137 31.4 67.072 31.4 67.966 31.682 68.717 32.276 70.948 34.044 71.083 37.908 69.02 40.891 Z" fill="#000000" fill-opacity="1" stroke="none"/>
</svg>
