<?xml version="1.0" encoding="UTF-8"?>
<svg width="75px" height="75px" viewBox="0 0 75 75" xmlns="http://www.w3.org/2000/svg" xmlns:xlink="http://www.w3.org/1999/xlink" version="1.1">
 <!-- Generated by Pixelmator Pro 1.8 -->
 <path id="Путь" d="M73.195 32.558 C73.192 32.556 73.191 32.554 73.189 32.552 L42.535 2.019 C41.228 0.717 39.491 0 37.643 0 35.796 0 34.058 0.717 32.751 2.019 L2.113 32.537 C2.103 32.547 2.092 32.558 2.082 32.568 -0.601 35.256 -0.596 39.618 2.095 42.299 3.325 43.524 4.949 44.234 6.686 44.308 6.757 44.315 6.828 44.319 6.899 44.319 L8.121 44.319 8.121 66.789 C8.121 71.236 11.753 74.854 16.218 74.854 L28.21 74.854 C29.426 74.854 30.412 73.871 30.412 72.661 L30.412 55.044 C30.412 53.015 32.069 51.364 34.107 51.364 L41.18 51.364 C43.217 51.364 44.874 53.015 44.874 55.044 L44.874 72.661 C44.874 73.871 45.86 74.854 47.076 74.854 L59.068 74.854 C63.534 74.854 67.166 71.236 67.166 66.789 L67.166 44.319 68.298 44.319 C70.146 44.319 71.883 43.602 73.191 42.299 75.885 39.614 75.886 35.245 73.195 32.558 Z M70.077 39.198 C69.602 39.672 68.97 39.933 68.298 39.933 L64.964 39.933 C63.748 39.933 62.762 40.914 62.762 42.126 L62.762 66.789 C62.762 68.817 61.105 70.468 59.068 70.468 L49.277 70.468 49.277 55.044 C49.277 50.597 45.645 46.978 41.18 46.978 L34.107 46.978 C29.641 46.978 26.009 50.597 26.009 55.044 L26.009 70.468 16.218 70.468 C14.181 70.468 12.524 68.817 12.524 66.789 L12.524 42.126 C12.524 40.914 11.538 39.933 10.322 39.933 L7.045 39.933 C7.011 39.931 6.977 39.929 6.942 39.928 6.286 39.917 5.671 39.658 5.21 39.198 4.229 38.221 4.229 36.632 5.21 35.655 5.21 35.655 5.21 35.654 5.211 35.654 L5.213 35.652 35.865 5.12 C36.34 4.646 36.971 4.386 37.643 4.386 38.315 4.386 38.946 4.646 39.421 5.12 L70.067 35.646 C70.072 35.65 70.077 35.655 70.081 35.659 71.057 36.638 71.055 38.224 70.077 39.198 Z" fill="#000000" fill-opacity="1" stroke="none"/>
</svg>
