<?xml version="1.0" encoding="UTF-8"?>
<svg width="75px" height="75px" viewBox="0 0 75 75" xmlns="http://www.w3.org/2000/svg" xmlns:xlink="http://www.w3.org/1999/xlink" version="1.1">
 <!-- Generated by Pixelmator Pro 1.8 -->
 <g id="group">
  <g id="group-1">
   <path id="Путь" d="M72.517 32.749 C71.226 32.749 70.178 33.796 70.178 35.088 L70.178 61.577 51.464 69.062 51.464 44.444 C51.464 43.153 50.416 42.105 49.125 42.105 47.834 42.105 46.786 43.153 46.786 44.444 L46.786 69.057 28.073 61.572 28.073 24.51 38.912 28.847 C40.096 29.324 41.471 28.744 41.953 27.542 42.435 26.344 41.85 24.982 40.648 24.501 L26.646 18.896 C26.646 18.896 26.646 18.896 26.641 18.896 L26.604 18.882 C26.047 18.657 25.425 18.657 24.868 18.882 L24.826 18.896 C24.826 18.896 24.826 18.896 24.821 18.896 L1.471 28.239 C0.587 28.594 0.002 29.45 0.002 30.409 L0.002 72.515 C0.002 73.291 0.391 74.016 1.032 74.451 1.425 74.718 1.878 74.854 2.342 74.854 2.636 74.854 2.931 74.798 3.212 74.685 L25.733 65.68 48.213 74.671 48.218 74.671 48.26 74.69 C48.816 74.915 49.439 74.915 49.995 74.69 L50.037 74.671 50.042 74.671 73.392 65.333 C74.271 64.973 74.856 64.117 74.856 63.158 L74.856 35.088 C74.856 33.796 73.808 32.749 72.517 32.749 Z M23.394 61.572 L4.681 69.057 4.681 31.991 23.394 24.505 Z" fill="#000000" fill-opacity="1" stroke="none"/>
  </g>
 </g>
 <g id="group-2">
  <g id="group-3">
   <path id="Путь-1" d="M58.482 9.357 C54.613 9.357 51.464 12.505 51.464 16.374 51.464 20.243 54.613 23.392 58.482 23.392 62.351 23.392 65.499 20.243 65.499 16.374 65.499 12.505 62.351 9.357 58.482 9.357 Z M58.482 18.713 C57.191 18.713 56.143 17.665 56.143 16.374 56.143 15.083 57.191 14.035 58.482 14.035 59.773 14.035 60.821 15.083 60.821 16.374 60.821 17.665 59.773 18.713 58.482 18.713 Z" fill="#000000" fill-opacity="1" stroke="none"/>
  </g>
 </g>
 <g id="group-4">
  <g id="group-5">
   <path id="Путь-2" d="M58.482 0 C49.453 0 42.108 7.345 42.108 16.374 42.108 24.777 55.244 39.658 56.742 41.329 57.186 41.82 57.818 42.105 58.482 42.105 59.146 42.105 59.778 41.82 60.222 41.329 61.719 39.658 74.856 24.777 74.856 16.374 74.856 7.345 67.511 0 58.482 0 Z M58.482 36.196 C53.373 30.138 46.786 20.837 46.786 16.374 46.786 9.927 52.035 4.678 58.482 4.678 64.929 4.678 70.178 9.927 70.178 16.374 70.178 20.833 63.591 30.138 58.482 36.196 Z" fill="#000000" fill-opacity="1" stroke="none"/>
  </g>
 </g>
 <g id="group-6"/>
 <g id="group-7"/>
 <g id="group-8"/>
 <g id="group-9"/>
 <g id="group-10"/>
 <g id="group-11"/>
 <g id="group-12"/>
 <g id="group-13"/>
 <g id="group-14"/>
 <g id="group-15"/>
 <g id="group-16"/>
 <g id="group-17"/>
 <g id="group-18"/>
 <g id="group-19"/>
 <g id="group-20"/>
</svg>
